<svg width="23" height="20" viewBox="0 0 23 20" fill="none" xmlns="http://www.w3.org/2000/svg">
<path d="M7.51227 4.29727C7.25172 4.03791 6.95688 3.81544 6.63593 3.63604C10.1529 0.12679 15.8525 0.132564 19.3638 3.63607C22.8842 7.13368 22.8669 12.8376 19.3636 16.3637C15.8603 19.8898 10.1567 19.8619 6.63631 16.3643C7.58912 15.745 8.24002 14.7572 8.35381 13.6272C8.47541 12.4671 8.06305 11.3155 7.23292 10.4977C7.04714 10.3128 6.84582 10.1447 6.63075 9.99482C7.63584 9.56046 8.3574 8.65201 8.55391 7.5752C8.76785 6.37661 8.37855 5.15092 7.51227 4.29727Z" stroke="white" stroke-width="1.5" stroke-linecap="round" stroke-linejoin="round"/>
<path d="M3.10319 12.8285L3.10178 12.827L3.1004 12.8284L3.10178 12.8298L3.10319 12.8285Z" stroke="white" stroke-width="1.5" stroke-linecap="round" stroke-linejoin="round"/>
<path d="M3.8103 6.4645L3.80889 6.46309L3.80751 6.46447L3.80889 6.46585L3.8103 6.4645Z" stroke="white" stroke-width="1.5" stroke-linecap="round" stroke-linejoin="round"/>
<path d="M0.981875 9.29293L0.98046 9.29151L0.979079 9.29289L0.98046 9.29427L0.981875 9.29293Z" stroke="white" stroke-width="1.5" stroke-linecap="round" stroke-linejoin="round"/>
<path d="M15.124 14.9498L15.1226 14.9484L15.1212 14.9497L15.1226 14.9511L15.124 14.9498Z" stroke="white" stroke-width="1.5" stroke-linecap="round" stroke-linejoin="round"/>
<path d="M17.2453 10L17.2439 9.99862L17.2425 10L17.2439 10.0014L17.2453 10Z" stroke="white" stroke-width="1.5" stroke-linecap="round" stroke-linejoin="round"/>
<path d="M12.2956 10.7071L12.2942 10.7057L12.2928 10.7071L12.2942 10.7085L12.2956 10.7071Z" stroke="white" stroke-width="1.5" stroke-linecap="round" stroke-linejoin="round"/>
<path d="M14.4169 5.75739L14.4155 5.75598L14.4141 5.75736L14.4155 5.75874L14.4169 5.75739Z" stroke="white" stroke-width="1.5" stroke-linecap="round" stroke-linejoin="round"/>
<path d="M3.10319 12.8285L3.10178 12.827L3.1004 12.8284L3.10178 12.8298L3.10319 12.8285Z" stroke="white" stroke-width="1.5" stroke-linecap="round" stroke-linejoin="round"/>
<path d="M3.8103 6.4645L3.80889 6.46309L3.80751 6.46447L3.80889 6.46585L3.8103 6.4645Z" stroke="white" stroke-width="1.5" stroke-linecap="round" stroke-linejoin="round"/>
<path d="M0.981875 9.29293L0.98046 9.29151L0.979079 9.29289L0.98046 9.29427L0.981875 9.29293Z" stroke="white" stroke-width="1.5" stroke-linecap="round" stroke-linejoin="round"/>
</svg>
