<svg width="19" height="17" viewBox="0 0 19 17" fill="none" xmlns="http://www.w3.org/2000/svg">
<path d="M0 15.397H1.80005M1.80005 15.397H6.30017M1.80005 15.397V3.87682C1.80005 2.8687 1.80005 2.36426 1.99624 1.97921C2.16882 1.64051 2.44399 1.36534 2.78269 1.19276C3.16774 0.996567 3.67218 0.996567 4.6803 0.996567H6.12034C7.12846 0.996567 7.63182 0.996567 8.01687 1.19276C8.35557 1.36534 8.63167 1.64051 8.80424 1.97921C9.00024 2.36389 9.00024 2.86771 9.00024 3.87386V6.39689M6.30017 15.397H16.2004M6.30017 15.397V10.3282C6.30017 9.85531 6.30017 9.61879 6.35687 9.39826C6.40712 9.20281 6.48983 9.01744 6.60164 8.84944C6.72773 8.65998 6.9042 8.50136 7.25557 8.18569L9.32704 6.32469C10.0063 5.71442 10.3462 5.40906 10.7305 5.29322C11.0693 5.19109 11.4309 5.19109 11.7698 5.29322C12.1544 5.40916 12.4947 5.71467 13.1752 6.32596L15.2452 8.18569C15.597 8.5017 15.7725 8.65988 15.8986 8.84944C16.0105 9.01744 16.0931 9.20281 16.1433 9.39826C16.2 9.61879 16.2004 9.85531 16.2004 10.3282V15.397M16.2004 15.397H18.0005" stroke="white" stroke-width="1.5" stroke-linecap="round" stroke-linejoin="round"/>
</svg>
