<svg width="20" height="16" viewBox="0 0 20 16" fill="none" xmlns="http://www.w3.org/2000/svg">
<path d="M2.00049 1.97926L8.10812 6.59153L8.11016 6.59322C8.78834 7.09055 9.12763 7.33936 9.49925 7.43548C9.82772 7.52044 10.173 7.52044 10.5015 7.43548C10.8734 7.33927 11.2137 7.08974 11.8931 6.59153C11.8931 6.59153 15.8106 3.5852 18.0005 1.97926M1.00049 11.7795L1.00049 4.17946C1.00049 3.05935 1.00049 2.49888 1.21848 2.07106C1.41022 1.69474 1.71596 1.389 2.09229 1.19725C2.52011 0.979263 3.08058 0.979263 4.20068 0.979263L15.8007 0.979263C16.9208 0.979263 17.4801 0.979263 17.9079 1.19725C18.2842 1.389 18.591 1.69474 18.7827 2.07106C19.0005 2.49847 19.0005 3.05826 19.0005 4.17617V11.7828C19.0005 12.9008 19.0005 13.4597 18.7827 13.8871C18.591 14.2635 18.2842 14.5697 17.9079 14.7615C17.4805 14.9793 16.9215 14.9793 15.8036 14.9793H4.1974C3.07948 14.9793 2.51969 14.9793 2.09229 14.7615C1.71596 14.5697 1.41022 14.2635 1.21848 13.8871C1.00049 13.4593 1.00049 12.8996 1.00049 11.7795Z" stroke="white" stroke-width="1.5" stroke-linecap="round" stroke-linejoin="round"/>
</svg>
