<svg width="19" height="20" viewBox="0 0 19 20" fill="none" xmlns="http://www.w3.org/2000/svg">
<path d="M6.50246 2.45398C6.19873 1.69466 5.46332 1.19676 4.64551 1.19676H1.89474C0.848303 1.19676 0 2.04486 0 3.09129C0 11.986 7.21078 19.1967 16.1055 19.1967C17.1519 19.1967 18 18.3484 18 17.3019L18.0005 14.5507C18.0005 13.7329 17.5027 12.9976 16.7434 12.6939L14.1069 11.6397C13.4249 11.3669 12.6483 11.4897 12.0839 11.9599L11.4035 12.5274C10.6089 13.1896 9.43963 13.137 8.7082 12.4055L6.79222 10.4878C6.06079 9.75638 6.00673 8.5881 6.66895 7.79345L7.23633 7.11306C7.70661 6.54872 7.83049 5.77192 7.55766 5.08985L6.50246 2.45398Z" stroke="white" stroke-width="1.5" stroke-linecap="round" stroke-linejoin="round"/>
</svg>
