<svg width="18" height="18" viewBox="0 0 18 18" fill="none" xmlns="http://www.w3.org/2000/svg">
<path d="M6.24137 6.39877C6.39319 5.93095 6.6713 5.51463 7.04519 5.1951C7.41909 4.87556 7.87454 4.66558 8.3603 4.58851C8.84605 4.51144 9.34336 4.57013 9.7978 4.75825C10.2522 4.94636 10.6458 5.25666 10.935 5.65451C11.2241 6.05236 11.3973 6.52227 11.4359 7.01259C11.4746 7.5029 11.3768 7.99448 11.1536 8.43273C10.9303 8.87097 10.5906 9.23866 10.1713 9.49566C9.75192 9.75266 9.26967 9.88868 8.77783 9.88868V10.778M8.77783 17C4.35955 17 0.777832 13.4183 0.777832 9C0.777832 4.58172 4.35955 1 8.77783 1C13.1961 1 16.7778 4.58172 16.7778 9C16.7778 13.4183 13.1961 17 8.77783 17ZM8.8221 13.4444V13.5333L8.73356 13.5335V13.4444H8.8221Z" stroke="white" stroke-width="1.25" stroke-linecap="round" stroke-linejoin="round"/>
</svg>
