<svg width="16" height="18" viewBox="0 0 16 18" fill="none" xmlns="http://www.w3.org/2000/svg">
<path d="M9.66672 7.22222V13.4444M6.11117 7.22222V13.4444M2.55561 3.66667V14.1556C2.55561 15.1512 2.55561 15.6487 2.74938 16.029C2.91982 16.3635 3.19159 16.636 3.5261 16.8064C3.90601 17 4.4036 17 5.39731 17H10.3806C11.3743 17 11.8712 17 12.2511 16.8064C12.5856 16.636 12.8583 16.3635 13.0287 16.029C13.2223 15.6491 13.2223 15.152 13.2223 14.1583V3.66667M2.55561 3.66667H4.33339M2.55561 3.66667H0.777832M4.33339 3.66667H11.4445M4.33339 3.66667C4.33339 2.83833 4.33339 2.42436 4.46871 2.09766C4.64915 1.66205 4.995 1.31576 5.43061 1.13533C5.75731 1 6.17171 1 7.00005 1H8.77783C9.60617 1 10.0203 1 10.347 1.13533C10.7827 1.31576 11.1286 1.66205 11.3091 2.09766C11.4444 2.42436 11.4445 2.83833 11.4445 3.66667M11.4445 3.66667H13.2223M13.2223 3.66667H15.0001" stroke="white" stroke-width="1.25" stroke-linecap="round" stroke-linejoin="round"/>
</svg>
