<svg width="25" height="16" viewBox="0 0 25 16" fill="none" xmlns="http://www.w3.org/2000/svg">
<path d="M10.4239 2.37158L7.30454 9.62952L4.18222 2.39309C3.91561 1.77519 3.30709 1.375 2.63412 1.375C1.41342 1.375 0.597273 2.63194 1.09393 3.74704L5.40325 13.4224C5.729 14.1538 6.45467 14.625 7.25532 14.625C8.05597 14.625 8.78164 14.1538 9.10739 13.4224L13.4413 3.69189C13.9264 2.60272 13.1292 1.375 11.9369 1.375C11.2787 1.375 10.6837 1.76689 10.4239 2.37158ZM23.9235 11.9274L19.8447 7.77508L23.6209 4.03952C24.6102 3.0609 23.9172 1.375 22.5256 1.375C22.1117 1.375 21.7149 1.53977 21.4226 1.83291L17.4359 5.83247V3.08936C17.4359 2.14255 16.6684 1.375 15.7215 1.375C14.7747 1.375 14.0072 2.14254 14.0072 3.08936V12.9106C14.0072 13.8575 14.7747 14.625 15.7215 14.625C16.6684 14.625 17.4359 13.8575 17.4359 12.9106V9.9259L21.6704 14.1604C21.9679 14.4579 22.3713 14.625 22.792 14.625C24.1982 14.625 24.9089 12.9306 23.9235 11.9274Z" stroke="white" stroke-width="1.25"/>
</svg>
